# xmcd CD database file
#
# Track frame offsets:
#	150
#	7072
#	23982
#	48777
#	69395
#	91732
#	111220
#	132962
#	147722
#	173265
#	189270
#	206730
#	227262
#	249860
#
# Disc length: 3624 seconds
#
# Revision: 0
# Processed by: cddbd v1.5.1PL0 Copyright (c) Steve Scherf et al.
# Submitted via: CDex 1.51
#
DISCID=ae0e260e
DTITLE=Various Artist - World of shadows
DYEAR=2004
DGENRE=New Age
TTITLE0=Zarathustras Fanfare
TTITLE1=The council of Elrond (Lord of the rings)
TTITLE2=Mystic figures
TTITLE3=The old castle
TTITLE4=The kingdom of Dracula
TTITLE5=May it be
TTITLE6=The witches sabbath
TTITLE7=Feast of Sacrifice
TTITLE8=Dark shadows - mystic lights
TTITLE9=Sirenes - the mystic island
TTITLE10=The prophecy (Lord of the rings)
TTITLE11=Dance of the druides
TTITLE12=The night of the wolfes
TTITLE13=Atlantis (The lost world)
EXTD=YEAR: 2004
EXTT0=
EXTT1=
EXTT2=
EXTT3=
EXTT4=
EXTT5=
EXTT6=
EXTT7=
EXTT8=
EXTT9=
EXTT10=
EXTT11=
EXTT12=
EXTT13=
PLAYORDER=
